<mxfile host="app.diagrams.net" modified="2024-06-03T20:30:45.361Z" agent="Mozilla/5.0 (X11; Linux x86_64; rv:126.0) Gecko/20100101 Firefox/126.0" etag="7aX_cow2l6XEEpSbLEgd" version="24.4.13" type="device">
  <diagram name="Page-1" id="ITteV4q7IIw6JcXEkYiK">
    <mxGraphModel dx="954" dy="526" grid="1" gridSize="10" guides="1" tooltips="1" connect="1" arrows="1" fold="1" page="1" pageScale="1" pageWidth="850" pageHeight="1100" math="0" shadow="0">
      <root>
        <mxCell id="0" />
        <mxCell id="1" parent="0" />
        <mxCell id="jL5X3HGcyGobARt5uU04-8" value="i_start = 1" style="edgeStyle=orthogonalEdgeStyle;rounded=0;orthogonalLoop=1;jettySize=auto;html=1;exitX=0.5;exitY=1;exitDx=0;exitDy=0;entryX=0.5;entryY=0;entryDx=0;entryDy=0;fontFamily=New Computer Modern;fontSize=12;fontStyle=2;strokeWidth=1;endArrow=classic;endFill=0;labelBackgroundColor=default;labelBorderColor=none;" parent="1" source="jL5X3HGcyGobARt5uU04-1" target="jL5X3HGcyGobARt5uU04-2" edge="1">
          <mxGeometry relative="1" as="geometry">
            <mxPoint as="offset" />
          </mxGeometry>
        </mxCell>
        <mxCell id="jL5X3HGcyGobARt5uU04-1" value="IDLE" style="ellipse;whiteSpace=wrap;html=1;strokeColor=#7CBACF;strokeWidth=2;fontFamily=New Computer Modern;shadow=1;" parent="1" vertex="1">
          <mxGeometry x="320" y="130" width="70" height="70" as="geometry" />
        </mxCell>
        <mxCell id="jL5X3HGcyGobARt5uU04-12" style="edgeStyle=orthogonalEdgeStyle;rounded=0;orthogonalLoop=1;jettySize=auto;html=1;exitX=1;exitY=0.5;exitDx=0;exitDy=0;entryX=0;entryY=0.5;entryDx=0;entryDy=0;curved=1;fontFamily=New Computer Modern;fontSize=12;fontStyle=2;strokeWidth=1;endArrow=classic;endFill=0;" parent="1" source="jL5X3HGcyGobARt5uU04-2" target="jL5X3HGcyGobARt5uU04-4" edge="1">
          <mxGeometry relative="1" as="geometry">
            <Array as="points" />
          </mxGeometry>
        </mxCell>
        <mxCell id="jL5X3HGcyGobARt5uU04-13" value="current_addr /= end_addr" style="edgeLabel;html=1;align=center;verticalAlign=middle;resizable=0;points=[];fontFamily=New Computer Modern;fontSize=12;fontStyle=2;labelBackgroundColor=default;labelBorderColor=none;" parent="jL5X3HGcyGobARt5uU04-12" vertex="1" connectable="0">
          <mxGeometry x="-0.125" y="-1" relative="1" as="geometry">
            <mxPoint x="10" y="-1" as="offset" />
          </mxGeometry>
        </mxCell>
        <mxCell id="jL5X3HGcyGobARt5uU04-14" value="current_addr = end_addr" style="edgeStyle=orthogonalEdgeStyle;rounded=0;orthogonalLoop=1;jettySize=auto;html=1;curved=1;exitX=1;exitY=0;exitDx=0;exitDy=0;fontFamily=New Computer Modern;fontSize=12;fontStyle=2;entryX=0;entryY=1;entryDx=0;entryDy=0;strokeWidth=1;endArrow=classic;endFill=0;labelBackgroundColor=default;labelBorderColor=none;" parent="1" source="jL5X3HGcyGobARt5uU04-2" target="jL5X3HGcyGobARt5uU04-3" edge="1">
          <mxGeometry relative="1" as="geometry">
            <Array as="points">
              <mxPoint x="480" y="270" />
              <mxPoint x="480" y="190" />
            </Array>
            <mxPoint as="offset" />
            <mxPoint x="600" y="210" as="targetPoint" />
          </mxGeometry>
        </mxCell>
        <mxCell id="jL5X3HGcyGobARt5uU04-2" value="ACTIVE" style="ellipse;whiteSpace=wrap;html=1;strokeColor=#7CBACF;strokeWidth=2;fontFamily=New Computer Modern;shadow=1;" parent="1" vertex="1">
          <mxGeometry x="320" y="260" width="70" height="70" as="geometry" />
        </mxCell>
        <mxCell id="jL5X3HGcyGobARt5uU04-20" style="edgeStyle=orthogonalEdgeStyle;rounded=0;orthogonalLoop=1;jettySize=auto;html=1;entryX=1;entryY=0.5;entryDx=0;entryDy=0;curved=1;exitX=0;exitY=0.5;exitDx=0;exitDy=0;fontFamily=New Computer Modern;fontSize=12;fontStyle=2;strokeWidth=1;endArrow=classic;endFill=0;" parent="1" source="jL5X3HGcyGobARt5uU04-3" target="jL5X3HGcyGobARt5uU04-1" edge="1">
          <mxGeometry relative="1" as="geometry" />
        </mxCell>
        <mxCell id="jL5X3HGcyGobARt5uU04-21" value="i_start = 0" style="edgeLabel;html=1;align=center;verticalAlign=middle;resizable=0;points=[];fontFamily=New Computer Modern;fontSize=12;fontStyle=2;labelBackgroundColor=default;labelBorderColor=none;" parent="jL5X3HGcyGobARt5uU04-20" vertex="1" connectable="0">
          <mxGeometry x="-0.075" y="33" relative="1" as="geometry">
            <mxPoint x="-7" y="-33" as="offset" />
          </mxGeometry>
        </mxCell>
        <mxCell id="jL5X3HGcyGobARt5uU04-3" value="WAIT_LOW" style="ellipse;whiteSpace=wrap;html=1;strokeColor=#7CBACF;strokeWidth=2;fontFamily=New Computer Modern;shadow=1;" parent="1" vertex="1">
          <mxGeometry x="570" y="130" width="70" height="70" as="geometry" />
        </mxCell>
        <mxCell id="jL5X3HGcyGobARt5uU04-22" value="" style="edgeStyle=orthogonalEdgeStyle;rounded=1;orthogonalLoop=1;jettySize=auto;html=1;entryX=1;entryY=0.5;entryDx=0;entryDy=0;fontFamily=New Computer Modern;fontSize=12;fontStyle=2;exitX=0.5;exitY=1;exitDx=0;exitDy=0;curved=0;strokeWidth=1;endArrow=classic;endFill=0;" parent="1" source="jL5X3HGcyGobARt5uU04-4" target="jL5X3HGcyGobARt5uU04-5" edge="1">
          <mxGeometry relative="1" as="geometry">
            <Array as="points" />
          </mxGeometry>
        </mxCell>
        <mxCell id="jL5X3HGcyGobARt5uU04-4" value="WAIT_RD" style="ellipse;whiteSpace=wrap;html=1;strokeColor=#7CBACF;strokeWidth=2;fontFamily=New Computer Modern;shadow=1;" parent="1" vertex="1">
          <mxGeometry x="570" y="260" width="70" height="70" as="geometry" />
        </mxCell>
        <mxCell id="jL5X3HGcyGobARt5uU04-23" value="i_mem_data = 0" style="edgeStyle=orthogonalEdgeStyle;rounded=0;orthogonalLoop=1;jettySize=auto;html=1;fontFamily=New Computer Modern;fontSize=12;fontStyle=2;strokeWidth=1;endArrow=classic;endFill=0;labelBackgroundColor=default;labelBorderColor=none;" parent="1" source="jL5X3HGcyGobARt5uU04-5" target="jL5X3HGcyGobARt5uU04-6" edge="1">
          <mxGeometry x="0.4" relative="1" as="geometry">
            <mxPoint as="offset" />
          </mxGeometry>
        </mxCell>
        <mxCell id="33VjlRC-JIQBdt88g5PG-1" value="&lt;font style=&quot;font-size: 12px;&quot; face=&quot;New Computer Modern&quot;&gt;&lt;i&gt;i_mem_data /= 0&lt;/i&gt;&lt;/font&gt;" style="edgeStyle=orthogonalEdgeStyle;rounded=0;orthogonalLoop=1;jettySize=auto;html=1;entryX=0.5;entryY=1;entryDx=0;entryDy=0;curved=1;exitX=0.5;exitY=0;exitDx=0;exitDy=0;strokeWidth=1;endArrow=classic;endFill=0;labelBackgroundColor=default;labelBorderColor=none;" edge="1" parent="1" source="jL5X3HGcyGobARt5uU04-5" target="jL5X3HGcyGobARt5uU04-2">
          <mxGeometry x="0.0436" relative="1" as="geometry">
            <Array as="points">
              <mxPoint x="355" y="370" />
              <mxPoint x="355" y="370" />
            </Array>
            <mxPoint as="offset" />
          </mxGeometry>
        </mxCell>
        <mxCell id="jL5X3HGcyGobARt5uU04-5" value="CHECK" style="ellipse;whiteSpace=wrap;html=1;strokeColor=#7CBACF;strokeWidth=2;fontFamily=New Computer Modern;shadow=1;" parent="1" vertex="1">
          <mxGeometry x="320" y="390" width="70" height="70" as="geometry" />
        </mxCell>
        <mxCell id="jL5X3HGcyGobARt5uU04-37" style="edgeStyle=orthogonalEdgeStyle;rounded=1;orthogonalLoop=1;jettySize=auto;html=1;entryX=0;entryY=0.5;entryDx=0;entryDy=0;curved=0;exitX=0.5;exitY=0;exitDx=0;exitDy=0;fontFamily=New Computer Modern;fontSize=12;fontStyle=2;strokeWidth=1;endArrow=classic;endFill=0;" parent="1" source="jL5X3HGcyGobARt5uU04-6" target="jL5X3HGcyGobARt5uU04-2" edge="1">
          <mxGeometry relative="1" as="geometry">
            <Array as="points">
              <mxPoint x="215" y="295" />
            </Array>
          </mxGeometry>
        </mxCell>
        <mxCell id="jL5X3HGcyGobARt5uU04-6" value="WR_DECR" style="ellipse;whiteSpace=wrap;html=1;strokeColor=#7CBACF;strokeWidth=2;fontFamily=New Computer Modern;shadow=1;" parent="1" vertex="1">
          <mxGeometry x="180" y="260" width="70" height="70" as="geometry" />
        </mxCell>
        <mxCell id="jL5X3HGcyGobARt5uU04-40" value="i_rst = 1" style="endArrow=classic;html=1;rounded=0;entryX=0;entryY=0;entryDx=0;entryDy=0;fontFamily=New Computer Modern;fontSize=12;fontStyle=2;strokeWidth=1;endFill=0;labelBackgroundColor=default;labelBorderColor=none;" parent="1" target="jL5X3HGcyGobARt5uU04-1" edge="1">
          <mxGeometry width="50" height="50" relative="1" as="geometry">
            <mxPoint x="280" y="80" as="sourcePoint" />
            <mxPoint x="490" y="180" as="targetPoint" />
          </mxGeometry>
        </mxCell>
      </root>
    </mxGraphModel>
  </diagram>
</mxfile>
